<mxfile host="app.diagrams.net" agent="Mozilla/5.0 (X11; Linux x86_64) AppleWebKit/537.36 (KHTML, like Gecko) Chrome/133.0.0.0 Safari/537.36" version="26.2.9">
  <diagram name="Σελίδα-1" id="OFntSI4oT4wJLD86fKHg">
    <mxGraphModel dx="1865" dy="984" grid="0" gridSize="10" guides="1" tooltips="1" connect="1" arrows="1" fold="1" page="0" pageScale="1" pageWidth="827" pageHeight="1169" math="0" shadow="0">
      <root>
        <mxCell id="0" />
        <mxCell id="1" parent="0" />
        <mxCell id="buyy8IlMTGKg0NcyNON4-15" value="" style="rounded=0;whiteSpace=wrap;html=1;" parent="1" vertex="1">
          <mxGeometry x="-2" y="-97" width="118" height="32" as="geometry" />
        </mxCell>
        <UserObject label="Main" placeholders="1" name="Variable" id="buyy8IlMTGKg0NcyNON4-16">
          <mxCell style="text;html=1;strokeColor=none;fillColor=none;align=center;verticalAlign=middle;whiteSpace=wrap;overflow=hidden;" parent="1" vertex="1">
            <mxGeometry x="17" y="-91" width="80" height="20" as="geometry" />
          </mxCell>
        </UserObject>
        <mxCell id="XmPGfUtXwGNJ7jX9oR1N-1" value="&lt;table border=&quot;1&quot; width=&quot;100%&quot; height=&quot;100%&quot; cellpadding=&quot;4&quot; style=&quot;width:100%;height:100%;border-collapse:collapse;&quot;&gt;&lt;tbody&gt;&lt;tr&gt;&lt;th align=&quot;center&quot;&gt;ReedObj&lt;/th&gt;&lt;/tr&gt;&lt;tr&gt;&lt;td align=&quot;center&quot;&gt;ReedObj(const char* path);&lt;br&gt;~ReedObj();&lt;br&gt;void getVertex();&lt;br&gt;void getFaces();&lt;br&gt;void getGlobalPos();&lt;br&gt;float setGlobalPos(float newPos);&lt;/td&gt;&lt;/tr&gt;&lt;tr&gt;&lt;td align=&quot;center&quot;&gt;std::vector&amp;lt;float*&amp;gt; vertex;&lt;br&gt;std::vector&amp;lt;int*&amp;gt; faces;&lt;br&gt;float globalPos;&lt;/td&gt;&lt;/tr&gt;&lt;/tbody&gt;&lt;/table&gt;" style="text;html=1;whiteSpace=wrap;strokeColor=none;fillColor=none;overflow=fill;" parent="1" vertex="1">
          <mxGeometry x="349" y="-376" width="224" height="172" as="geometry" />
        </mxCell>
        <mxCell id="XmPGfUtXwGNJ7jX9oR1N-28" style="edgeStyle=orthogonalEdgeStyle;rounded=0;orthogonalLoop=1;jettySize=auto;html=1;exitX=1;exitY=0.25;exitDx=0;exitDy=0;entryX=0;entryY=0.5;entryDx=0;entryDy=0;endArrow=block;endFill=0;endSize=15;" parent="1" source="XmPGfUtXwGNJ7jX9oR1N-2" target="XmPGfUtXwGNJ7jX9oR1N-24" edge="1">
          <mxGeometry relative="1" as="geometry" />
        </mxCell>
        <mxCell id="XmPGfUtXwGNJ7jX9oR1N-38" style="edgeStyle=orthogonalEdgeStyle;rounded=0;orthogonalLoop=1;jettySize=auto;html=1;exitX=0.25;exitY=0;exitDx=0;exitDy=0;entryX=1;entryY=0.25;entryDx=0;entryDy=0;endArrow=open;endFill=0;" parent="1" source="XmPGfUtXwGNJ7jX9oR1N-2" target="buyy8IlMTGKg0NcyNON4-15" edge="1">
          <mxGeometry relative="1" as="geometry" />
        </mxCell>
        <mxCell id="XmPGfUtXwGNJ7jX9oR1N-2" value="&lt;table border=&quot;1&quot; width=&quot;100%&quot; height=&quot;100%&quot; cellpadding=&quot;4&quot; style=&quot;width:100%;height:100%;border-collapse:collapse;&quot;&gt;&lt;tbody&gt;&lt;tr&gt;&lt;th align=&quot;center&quot;&gt;&lt;b&gt;ObjMap&lt;/b&gt;&lt;/th&gt;&lt;/tr&gt;&lt;tr&gt;&lt;td align=&quot;center&quot;&gt;ObjMap(int xScreenSize, int yScreenSize, float FOV, float zNear, float zFar);&lt;br&gt;~ObjMap();&lt;br&gt;void openObj(const char* path);&lt;br&gt;void moveObj(const char* objName, float x, float y, float z);&lt;br&gt;void rotateXObj(const char* objName, int angle);&lt;br&gt;void rotateYObj(const char* objName, int angle);&lt;br&gt;void rotateZObj(const char* objName, int angle);&lt;br&gt;void setMyProjectionMatrix(float* newProjMatrix);&lt;br&gt;void changeProjectionMatrixVar(int xScreenSize, int yScreenSize, float FOV, float zNear, float zFar);&lt;br&gt;std::vector&amp;lt;int*&amp;gt; returnObjScreenPos(const char* objName);&lt;/td&gt;&lt;/tr&gt;&lt;tr&gt;&lt;td align=&quot;center&quot;&gt;std::map&amp;lt;const char*, ReedObj&amp;gt; objs;&lt;br&gt;float* projMatrix;&lt;br&gt;int xScreenSize, yScreenSize;&lt;br&gt;float FOV, zNear, zFar;&lt;/td&gt;&lt;/tr&gt;&lt;/tbody&gt;&lt;/table&gt;" style="text;html=1;whiteSpace=wrap;strokeColor=none;fillColor=none;overflow=fill;" parent="1" vertex="1">
          <mxGeometry x="30" y="-31" width="592" height="258" as="geometry" />
        </mxCell>
        <mxCell id="XmPGfUtXwGNJ7jX9oR1N-56" style="edgeStyle=orthogonalEdgeStyle;rounded=0;orthogonalLoop=1;jettySize=auto;html=1;exitX=1;exitY=0.25;exitDx=0;exitDy=0;entryX=0;entryY=0.5;entryDx=0;entryDy=0;endArrow=open;endFill=0;" parent="1" source="XmPGfUtXwGNJ7jX9oR1N-3" target="buyy8IlMTGKg0NcyNON4-15" edge="1">
          <mxGeometry relative="1" as="geometry" />
        </mxCell>
        <mxCell id="XmPGfUtXwGNJ7jX9oR1N-3" value="&lt;table border=&quot;1&quot; width=&quot;100%&quot; height=&quot;100%&quot; cellpadding=&quot;4&quot; style=&quot;width:100%;height:100%;border-collapse:collapse;&quot;&gt;&lt;tbody&gt;&lt;tr&gt;&lt;th align=&quot;center&quot;&gt;Window&lt;/th&gt;&lt;/tr&gt;&lt;tr&gt;&lt;td align=&quot;center&quot;&gt;Window(int xScreenSize, int yScreenSize, Uint8 red, Uint8 green, Uint8 blue);&lt;br&gt;~Window();&lt;br&gt;void makeFrame(std::vector&amp;lt;float*&amp;gt; pos);&lt;br&gt;void delay(int ms);&lt;/td&gt;&lt;/tr&gt;&lt;tr&gt;&lt;td align=&quot;center&quot;&gt;SDL_Window* window;&lt;br&gt;SDL_Renderer* renderer;&lt;br&gt;Uint8 red, green, blue;&lt;/td&gt;&lt;/tr&gt;&lt;/tbody&gt;&lt;/table&gt;" style="text;html=1;whiteSpace=wrap;strokeColor=none;fillColor=none;overflow=fill;" parent="1" vertex="1">
          <mxGeometry x="-545" y="-97" width="465" height="180" as="geometry" />
        </mxCell>
        <mxCell id="XmPGfUtXwGNJ7jX9oR1N-16" value="&lt;b&gt;MatrixOperations&lt;/b&gt;" style="swimlane;fontStyle=0;childLayout=stackLayout;horizontal=1;startSize=30;horizontalStack=0;resizeParent=1;resizeParentMax=0;resizeLast=0;collapsible=1;marginBottom=0;whiteSpace=wrap;html=1;" parent="1" vertex="1">
          <mxGeometry x="673" y="103" width="331" height="60" as="geometry" />
        </mxCell>
        <mxCell id="XmPGfUtXwGNJ7jX9oR1N-17" value="float* returnMulMatrix4x4_4x1(float* matrix1, float* matrix2);" style="text;strokeColor=none;fillColor=none;align=left;verticalAlign=middle;spacingLeft=4;spacingRight=4;overflow=hidden;points=[[0,0.5],[1,0.5]];portConstraint=eastwest;rotatable=0;whiteSpace=wrap;html=1;" parent="XmPGfUtXwGNJ7jX9oR1N-16" vertex="1">
          <mxGeometry y="30" width="331" height="30" as="geometry" />
        </mxCell>
        <mxCell id="XmPGfUtXwGNJ7jX9oR1N-24" value="&lt;b&gt;Shape&lt;/b&gt;" style="swimlane;fontStyle=0;childLayout=stackLayout;horizontal=1;startSize=30;horizontalStack=0;resizeParent=1;resizeParentMax=0;resizeLast=0;collapsible=1;marginBottom=0;whiteSpace=wrap;html=1;" parent="1" vertex="1">
          <mxGeometry x="718" y="-144" width="334" height="90" as="geometry" />
        </mxCell>
        <mxCell id="XmPGfUtXwGNJ7jX9oR1N-25" value="&lt;span style=&quot;text-wrap-mode: nowrap; color: rgba(0, 0, 0, 0); font-family: monospace; font-size: 0px;&quot;&gt;%3CmxGraphModel%3E%3Croot%3E%3CmxCell%20id%3D%220%22%2F%3E%3CmxCell%20id%3D%221%22%20parent%3D%220%22%2F%3E%3CmxCell%20id%3D%222%22%20value%3D%22%26lt%3Bb%26gt%3BShape%26lt%3B%2Fb%26gt%3B%22%20style%3D%22swimlane%3BfontStyle%3D0%3BchildLayout%3DstackLayout%3Bhorizontal%3D1%3BstartSize%3D30%3BhorizontalStack%3D0%3BresizeParent%3D1%3BresizeParentMax%3D0%3BresizeLast%3D0%3Bcollapsible%3D1%3BmarginBottom%3D0%3BwhiteSpace%3Dwrap%3Bhtml%3D1%3B%22%20vertex%3D%221%22%20parent%3D%221%22%3E%3CmxGeometry%20x%3D%22638%22%20y%3D%22-47%22%20width%3D%22331%22%20height%3D%2260%22%20as%3D%22geometry%22%2F%3E%3C%2FmxCell%3E%3CmxCell%20id%3D%223%22%20value%3D%22float*%20returnTrianglePos(float*%20pos1%2C%20float*%20pos2%2C%20float*%20pos3)%3B%22%20style%3D%22text%3BstrokeColor%3Dnone%3BfillColor%3Dnone%3Balign%3Dleft%3BverticalAlign%3Dmiddle%3BspacingLeft%3D4%3BspacingRight%3D4%3Boverflow%3Dhidden%3Bpoints%3D%5B%5B0%2C0.5%5D%2C%5B1%2C0.5%5D%5D%3BportConstraint%3Deastwest%3Brotatable%3D0%3BwhiteSpace%3Dwrap%3Bhtml%3D1%3B%22%20vertex%3D%221%22%20parent%3D%222%22%3E%3CmxGeometry%20y%3D%2230%22%20width%3D%22331%22%20height%3D%2230%22%20as%3D%22geometry%22%2F%3E%3C%2FmxCell%3E%3C%2Froot%3E%3C%2FmxGraphModel%3E&lt;/span&gt;float* returnLinePos(float* pos1, float* pos2, float* pos3);" style="text;strokeColor=none;fillColor=none;align=left;verticalAlign=middle;spacingLeft=4;spacingRight=4;overflow=hidden;points=[[0,0.5],[1,0.5]];portConstraint=eastwest;rotatable=0;whiteSpace=wrap;html=1;" parent="XmPGfUtXwGNJ7jX9oR1N-24" vertex="1">
          <mxGeometry y="30" width="334" height="30" as="geometry" />
        </mxCell>
        <mxCell id="XmPGfUtXwGNJ7jX9oR1N-26" value="float* returnTrianglePos(float* pos1, float* pos2, float* pos3)" style="text;strokeColor=none;fillColor=none;align=left;verticalAlign=middle;spacingLeft=4;spacingRight=4;overflow=hidden;points=[[0,0.5],[1,0.5]];portConstraint=eastwest;rotatable=0;whiteSpace=wrap;html=1;" parent="XmPGfUtXwGNJ7jX9oR1N-24" vertex="1">
          <mxGeometry y="60" width="334" height="30" as="geometry" />
        </mxCell>
        <mxCell id="XmPGfUtXwGNJ7jX9oR1N-30" style="edgeStyle=orthogonalEdgeStyle;rounded=0;orthogonalLoop=1;jettySize=auto;html=1;exitX=0.999;exitY=0.862;exitDx=0;exitDy=0;entryX=0;entryY=0.75;entryDx=0;entryDy=0;endArrow=block;endFill=0;endSize=15;exitPerimeter=0;" parent="1" source="XmPGfUtXwGNJ7jX9oR1N-2" target="XmPGfUtXwGNJ7jX9oR1N-16" edge="1">
          <mxGeometry relative="1" as="geometry">
            <mxPoint x="557" y="130" as="sourcePoint" />
            <mxPoint x="682" y="111" as="targetPoint" />
          </mxGeometry>
        </mxCell>
        <mxCell id="XmPGfUtXwGNJ7jX9oR1N-31" style="edgeStyle=orthogonalEdgeStyle;rounded=0;orthogonalLoop=1;jettySize=auto;html=1;exitX=0.5;exitY=1;exitDx=0;exitDy=0;entryX=0.728;entryY=-0.007;entryDx=0;entryDy=0;entryPerimeter=0;endArrow=open;endFill=0;" parent="1" source="XmPGfUtXwGNJ7jX9oR1N-1" target="XmPGfUtXwGNJ7jX9oR1N-2" edge="1">
          <mxGeometry relative="1" as="geometry" />
        </mxCell>
        <mxCell id="XmPGfUtXwGNJ7jX9oR1N-32" value="*" style="text;html=1;align=center;verticalAlign=middle;resizable=0;points=[];autosize=1;strokeColor=none;fillColor=none;" parent="1" vertex="1">
          <mxGeometry x="443" y="-204" width="23" height="26" as="geometry" />
        </mxCell>
        <mxCell id="XmPGfUtXwGNJ7jX9oR1N-34" value="1" style="text;html=1;align=center;verticalAlign=middle;resizable=0;points=[];autosize=1;strokeColor=none;fillColor=none;" parent="1" vertex="1">
          <mxGeometry x="430" y="-69" width="25" height="26" as="geometry" />
        </mxCell>
        <mxCell id="XmPGfUtXwGNJ7jX9oR1N-39" value="1" style="text;html=1;align=center;verticalAlign=middle;resizable=0;points=[];autosize=1;strokeColor=none;fillColor=none;" parent="1" vertex="1">
          <mxGeometry x="183" y="-57" width="25" height="26" as="geometry" />
        </mxCell>
        <mxCell id="XmPGfUtXwGNJ7jX9oR1N-40" value="1" style="text;html=1;align=center;verticalAlign=middle;resizable=0;points=[];autosize=1;strokeColor=none;fillColor=none;" parent="1" vertex="1">
          <mxGeometry x="125" y="-112" width="25" height="26" as="geometry" />
        </mxCell>
        <mxCell id="XmPGfUtXwGNJ7jX9oR1N-52" value="WindowControl" style="swimlane;fontStyle=0;childLayout=stackLayout;horizontal=1;startSize=30;horizontalStack=0;resizeParent=1;resizeParentMax=0;resizeLast=0;collapsible=1;marginBottom=0;whiteSpace=wrap;html=1;" parent="1" vertex="1">
          <mxGeometry x="-203" y="-304" width="140" height="60" as="geometry" />
        </mxCell>
        <mxCell id="XmPGfUtXwGNJ7jX9oR1N-53" value="int isWindowClose();" style="text;strokeColor=none;fillColor=none;align=left;verticalAlign=middle;spacingLeft=4;spacingRight=4;overflow=hidden;points=[[0,0.5],[1,0.5]];portConstraint=eastwest;rotatable=0;whiteSpace=wrap;html=1;" parent="XmPGfUtXwGNJ7jX9oR1N-52" vertex="1">
          <mxGeometry y="30" width="140" height="30" as="geometry" />
        </mxCell>
        <mxCell id="XmPGfUtXwGNJ7jX9oR1N-58" style="edgeStyle=orthogonalEdgeStyle;rounded=0;orthogonalLoop=1;jettySize=auto;html=1;exitX=0.25;exitY=0;exitDx=0;exitDy=0;entryX=1;entryY=0.5;entryDx=0;entryDy=0;endArrow=block;endFill=0;endSize=15;" parent="1" source="buyy8IlMTGKg0NcyNON4-15" target="XmPGfUtXwGNJ7jX9oR1N-53" edge="1">
          <mxGeometry relative="1" as="geometry">
            <mxPoint x="208" y="-143" as="sourcePoint" />
            <mxPoint x="333" y="-162" as="targetPoint" />
          </mxGeometry>
        </mxCell>
        <mxCell id="XmPGfUtXwGNJ7jX9oR1N-59" value="1" style="text;html=1;align=center;verticalAlign=middle;resizable=0;points=[];autosize=1;strokeColor=none;fillColor=none;" parent="1" vertex="1">
          <mxGeometry x="-32" y="-106" width="25" height="26" as="geometry" />
        </mxCell>
        <mxCell id="XmPGfUtXwGNJ7jX9oR1N-60" value="1" style="text;html=1;align=center;verticalAlign=middle;resizable=0;points=[];autosize=1;strokeColor=none;fillColor=none;" parent="1" vertex="1">
          <mxGeometry x="-85" y="-74" width="25" height="26" as="geometry" />
        </mxCell>
      </root>
    </mxGraphModel>
  </diagram>
</mxfile>
